<svg id="visual" viewBox="0 0 720 1024" width="720" height="1024" xmlns="http://www.w3.org/2000/svg" xmlns:xlink="http://www.w3.org/1999/xlink" version="1.1"><g stroke-width="1" stroke-linejoin="bevel"><path d="M368 460.6L306 357.8L319 473.6Z" fill="#002350" stroke="#002350"></path><path d="M306 357.8L253 406.8L319 473.6Z" fill="#3c32b1" stroke="#3c32b1"></path><path d="M427 361.8L350 324.1L306 357.8Z" fill="#002965" stroke="#002965"></path><path d="M368 460.6L427 361.8L306 357.8Z" fill="#011426" stroke="#011426"></path><path d="M427 361.8L435 340.1L350 324.1Z" fill="#26329f" stroke="#26329f"></path><path d="M368 460.6L468 385.8L427 361.8Z" fill="#002d79" stroke="#002d79"></path><path d="M427 361.8L468 385.8L435 340.1Z" fill="#002965" stroke="#002965"></path><path d="M319 473.6L428 526.4L368 460.6Z" fill="#001c3b" stroke="#001c3b"></path><path d="M368 460.6L484 445.6L468 385.8Z" fill="#002d79" stroke="#002d79"></path><path d="M228 293.1L176 393.8L253 406.8Z" fill="#002965" stroke="#002965"></path><path d="M253 406.8L201 502.6L319 473.6Z" fill="#001c3b" stroke="#001c3b"></path><path d="M228 293.1L253 406.8L306 357.8Z" fill="#3c32b1" stroke="#3c32b1"></path><path d="M176 393.8L201 502.6L253 406.8Z" fill="#6c28d2" stroke="#6c28d2"></path><path d="M319 473.6L293 575.4L428 526.4Z" fill="#532fc2" stroke="#532fc2"></path><path d="M305 236.3L306 357.8L350 324.1Z" fill="#002965" stroke="#002965"></path><path d="M305 236.3L228 293.1L306 357.8Z" fill="#001c3b" stroke="#001c3b"></path><path d="M428 526.4L484 445.6L368 460.6Z" fill="#11308d" stroke="#11308d"></path><path d="M201 502.6L293 575.4L319 473.6Z" fill="#002350" stroke="#002350"></path><path d="M450 273.3L404 254.3L435 340.1Z" fill="#3c32b1" stroke="#3c32b1"></path><path d="M435 340.1L404 254.3L350 324.1Z" fill="#002d79" stroke="#002d79"></path><path d="M404 254.3L305 236.3L350 324.1Z" fill="#011426" stroke="#011426"></path><path d="M509 310.1L435 340.1L468 385.8Z" fill="#532fc2" stroke="#532fc2"></path><path d="M509 310.1L450 273.3L435 340.1Z" fill="#002350" stroke="#002350"></path><path d="M201 502.6L233 573.4L293 575.4Z" fill="#002965" stroke="#002965"></path><path d="M484 445.6L521 389.8L468 385.8Z" fill="#011426" stroke="#011426"></path><path d="M176 393.8L138 477.6L201 502.6Z" fill="#000913" stroke="#000913"></path><path d="M201 502.6L172 543.4L233 573.4Z" fill="#000913" stroke="#000913"></path><path d="M138 477.6L172 543.4L201 502.6Z" fill="#011426" stroke="#011426"></path><path d="M521 389.8L509 310.1L468 385.8Z" fill="#3c32b1" stroke="#3c32b1"></path><path d="M205 203.3L158 287.1L228 293.1Z" fill="#002350" stroke="#002350"></path><path d="M228 293.1L158 287.1L176 393.8Z" fill="#002965" stroke="#002965"></path><path d="M176 393.8L64 381.8L138 477.6Z" fill="#002d79" stroke="#002d79"></path><path d="M233 573.4L278 625.2L293 575.4Z" fill="#002d79" stroke="#002d79"></path><path d="M293 575.4L439 626.2L428 526.4Z" fill="#011426" stroke="#011426"></path><path d="M169 648.2L278 625.2L233 573.4Z" fill="#26329f" stroke="#26329f"></path><path d="M419 192.5L290 196.5L305 236.3Z" fill="#011426" stroke="#011426"></path><path d="M305 236.3L205 203.3L228 293.1Z" fill="#6c28d2" stroke="#6c28d2"></path><path d="M419 192.5L305 236.3L404 254.3Z" fill="#26329f" stroke="#26329f"></path><path d="M278 625.2L311 634.2L293 575.4Z" fill="#011426" stroke="#011426"></path><path d="M428 526.4L542 482.6L484 445.6Z" fill="#002d79" stroke="#002d79"></path><path d="M484 445.6L542 482.6L521 389.8Z" fill="#3c32b1" stroke="#3c32b1"></path><path d="M521 389.8L594 312.1L509 310.1Z" fill="#002350" stroke="#002350"></path><path d="M517 566.4L542 482.6L428 526.4Z" fill="#002d79" stroke="#002d79"></path><path d="M482 157.5L419 192.5L450 273.3Z" fill="#000913" stroke="#000913"></path><path d="M450 273.3L419 192.5L404 254.3Z" fill="#002350" stroke="#002350"></path><path d="M311 634.2L439 626.2L293 575.4Z" fill="#26329f" stroke="#26329f"></path><path d="M439 626.2L517 566.4L428 526.4Z" fill="#002965" stroke="#002965"></path><path d="M290 196.5L205 203.3L305 236.3Z" fill="#11308d" stroke="#11308d"></path><path d="M168 178.5L177 205.3L205 203.3Z" fill="#3c32b1" stroke="#3c32b1"></path><path d="M205 203.3L177 205.3L158 287.1Z" fill="#3c32b1" stroke="#3c32b1"></path><path d="M177 205.3L108 267.3L158 287.1Z" fill="#6c28d2" stroke="#6c28d2"></path><path d="M158 287.1L64 381.8L176 393.8Z" fill="#002d79" stroke="#002d79"></path><path d="M58 298.1L64 381.8L158 287.1Z" fill="#002d79" stroke="#002d79"></path><path d="M61 542.4L169 648.2L172 543.4Z" fill="#002d79" stroke="#002d79"></path><path d="M517 566.4L581 524.4L542 482.6Z" fill="#6c28d2" stroke="#6c28d2"></path><path d="M629 389.8L594 312.1L521 389.8Z" fill="#532fc2" stroke="#532fc2"></path><path d="M612 550.4L581 524.4L517 566.4Z" fill="#002965" stroke="#002965"></path><path d="M629 389.8L521 389.8L542 482.6Z" fill="#002d79" stroke="#002d79"></path><path d="M509 310.1L534 197.3L450 273.3Z" fill="#011426" stroke="#011426"></path><path d="M61 542.4L172 543.4L138 477.6Z" fill="#002350" stroke="#002350"></path><path d="M172 543.4L169 648.2L233 573.4Z" fill="#532fc2" stroke="#532fc2"></path><path d="M278 625.2L239 684.9L311 634.2Z" fill="#011426" stroke="#011426"></path><path d="M487 719.9L519 627.2L439 626.2Z" fill="#000913" stroke="#000913"></path><path d="M177 205.3L168 178.5L108 267.3Z" fill="#002965" stroke="#002965"></path><path d="M245 121.5L168 178.5L205 203.3Z" fill="#002350" stroke="#002350"></path><path d="M245 121.5L205 203.3L290 196.5Z" fill="#001c3b" stroke="#001c3b"></path><path d="M388 697.9L439 626.2L311 634.2Z" fill="#6c28d2" stroke="#6c28d2"></path><path d="M439 626.2L519 627.2L517 566.4Z" fill="#002965" stroke="#002965"></path><path d="M169 648.2L239 684.9L278 625.2Z" fill="#3c32b1" stroke="#3c32b1"></path><path d="M316 744.9L388 697.9L311 634.2Z" fill="#000913" stroke="#000913"></path><path d="M64 381.8L44 469.6L138 477.6Z" fill="#011426" stroke="#011426"></path><path d="M108 267.3L58 298.1L158 287.1Z" fill="#3c32b1" stroke="#3c32b1"></path><path d="M64 381.8L0 398.8L44 469.6Z" fill="#000913" stroke="#000913"></path><path d="M0 278.1L58 298.1L0 221.3Z" fill="#001c3b" stroke="#001c3b"></path><path d="M44 469.6L61 542.4L138 477.6Z" fill="#000913" stroke="#000913"></path><path d="M610 277.1L534 197.3L509 310.1Z" fill="#3c32b1" stroke="#3c32b1"></path><path d="M268 115.8L245 121.5L290 196.5Z" fill="#002965" stroke="#002965"></path><path d="M534 197.3L482 157.5L450 273.3Z" fill="#002350" stroke="#002350"></path><path d="M650 436.6L629 389.8L542 482.6Z" fill="#6c28d2" stroke="#6c28d2"></path><path d="M268 115.8L290 196.5L283 100.8Z" fill="#002350" stroke="#002350"></path><path d="M283 100.8L290 196.5L419 192.5Z" fill="#000913" stroke="#000913"></path><path d="M720 344.1L610 277.1L594 312.1Z" fill="#26329f" stroke="#26329f"></path><path d="M594 312.1L610 277.1L509 310.1Z" fill="#532fc2" stroke="#532fc2"></path><path d="M519 627.2L612 550.4L517 566.4Z" fill="#002d79" stroke="#002d79"></path><path d="M581 524.4L650 436.6L542 482.6Z" fill="#532fc2" stroke="#532fc2"></path><path d="M411 57.8L283 100.8L419 192.5Z" fill="#3c32b1" stroke="#3c32b1"></path><path d="M268 115.8L283 100.8L245 121.5Z" fill="#001c3b" stroke="#001c3b"></path><path d="M612 550.4L650 436.6L581 524.4Z" fill="#002350" stroke="#002350"></path><path d="M720 344.1L660 235.3L610 277.1Z" fill="#002965" stroke="#002965"></path><path d="M58 298.1L0 398.8L64 381.8Z" fill="#002d79" stroke="#002d79"></path><path d="M44 469.6L0 510.6L61 542.4Z" fill="#002965" stroke="#002965"></path><path d="M294 794.7L316 744.9L239 684.9Z" fill="#001c3b" stroke="#001c3b"></path><path d="M239 684.9L316 744.9L311 634.2Z" fill="#000913" stroke="#000913"></path><path d="M388 697.9L487 719.9L439 626.2Z" fill="#11308d" stroke="#11308d"></path><path d="M89 666.2L169 703.9L169 648.2Z" fill="#3c32b1" stroke="#3c32b1"></path><path d="M169 648.2L169 703.9L239 684.9Z" fill="#000913" stroke="#000913"></path><path d="M534 197.3L540 151.5L482 157.5Z" fill="#000913" stroke="#000913"></path><path d="M482 157.5L411 57.8L419 192.5Z" fill="#532fc2" stroke="#532fc2"></path><path d="M623 118.5L540 151.5L534 197.3Z" fill="#532fc2" stroke="#532fc2"></path><path d="M0 398.8L0 510.6L44 469.6Z" fill="#3c32b1" stroke="#3c32b1"></path><path d="M61 542.4L89 666.2L169 648.2Z" fill="#011426" stroke="#011426"></path><path d="M493 772.7L487 719.9L402 811.7Z" fill="#000913" stroke="#000913"></path><path d="M519 627.2L580 665.2L612 550.4Z" fill="#11308d" stroke="#11308d"></path><path d="M0 619.2L89 666.2L61 542.4Z" fill="#11308d" stroke="#11308d"></path><path d="M185 59.8L119 129.5L168 178.5Z" fill="#002350" stroke="#002350"></path><path d="M168 178.5L119 129.5L108 267.3Z" fill="#001c3b" stroke="#001c3b"></path><path d="M58 298.1L0 278.1L0 398.8Z" fill="#3c32b1" stroke="#3c32b1"></path><path d="M185 59.8L168 178.5L245 121.5Z" fill="#000913" stroke="#000913"></path><path d="M487 719.9L580 665.2L519 627.2Z" fill="#001c3b" stroke="#001c3b"></path><path d="M720 473.6L720 379.8L650 436.6Z" fill="#11308d" stroke="#11308d"></path><path d="M0 221.3L58 298.1L108 267.3Z" fill="#002d79" stroke="#002d79"></path><path d="M540 151.5L486 90.8L482 157.5Z" fill="#011426" stroke="#011426"></path><path d="M486 90.8L411 57.8L482 157.5Z" fill="#002d79" stroke="#002d79"></path><path d="M283 100.8L185 59.8L245 121.5Z" fill="#002965" stroke="#002965"></path><path d="M0 510.6L0 580.4L61 542.4Z" fill="#11308d" stroke="#11308d"></path><path d="M610 277.1L660 235.3L534 197.3Z" fill="#002965" stroke="#002965"></path><path d="M540 151.5L557 54.8L486 90.8Z" fill="#002965" stroke="#002965"></path><path d="M720 344.1L594 312.1L629 389.8Z" fill="#11308d" stroke="#11308d"></path><path d="M119 129.5L0 221.3L108 267.3Z" fill="#002350" stroke="#002350"></path><path d="M232 0L185 59.8L283 100.8Z" fill="#3c32b1" stroke="#3c32b1"></path><path d="M119 129.5L0 160.5L0 221.3Z" fill="#002350" stroke="#002350"></path><path d="M603 718.9L621 661.2L580 665.2Z" fill="#26329f" stroke="#26329f"></path><path d="M580 665.2L621 661.2L612 550.4Z" fill="#532fc2" stroke="#532fc2"></path><path d="M182 770.7L294 794.7L239 684.9Z" fill="#011426" stroke="#011426"></path><path d="M402 811.7L487 719.9L388 697.9Z" fill="#001c3b" stroke="#001c3b"></path><path d="M182 770.7L239 684.9L169 703.9Z" fill="#000913" stroke="#000913"></path><path d="M79 785.7L182 770.7L169 703.9Z" fill="#001c3b" stroke="#001c3b"></path><path d="M48 741.9L169 703.9L89 666.2Z" fill="#002350" stroke="#002350"></path><path d="M0 580.4L0 619.2L61 542.4Z" fill="#3c32b1" stroke="#3c32b1"></path><path d="M720 473.6L650 436.6L612 550.4Z" fill="#000913" stroke="#000913"></path><path d="M650 436.6L720 379.8L629 389.8Z" fill="#001c3b" stroke="#001c3b"></path><path d="M402 811.7L388 697.9L316 744.9Z" fill="#001c3b" stroke="#001c3b"></path><path d="M487 719.9L569 739.9L580 665.2Z" fill="#001c3b" stroke="#001c3b"></path><path d="M720 560.4L720 473.6L612 550.4Z" fill="#002d79" stroke="#002d79"></path><path d="M720 379.8L720 344.1L629 389.8Z" fill="#002965" stroke="#002965"></path><path d="M323 837.5L402 811.7L316 744.9Z" fill="#002965" stroke="#002965"></path><path d="M493 772.7L569 739.9L487 719.9Z" fill="#011426" stroke="#011426"></path><path d="M569 739.9L603 718.9L580 665.2Z" fill="#001c3b" stroke="#001c3b"></path><path d="M621 661.2L720 560.4L612 550.4Z" fill="#3c32b1" stroke="#3c32b1"></path><path d="M94 0L63 100.8L119 129.5Z" fill="#001c3b" stroke="#001c3b"></path><path d="M411 57.8L301 0L283 100.8Z" fill="#011426" stroke="#011426"></path><path d="M185 59.8L94 0L119 129.5Z" fill="#000913" stroke="#000913"></path><path d="M407 0L301 0L411 57.8Z" fill="#11308d" stroke="#11308d"></path><path d="M63 100.8L0 160.5L119 129.5Z" fill="#001c3b" stroke="#001c3b"></path><path d="M182 770.7L253 822.7L294 794.7Z" fill="#000913" stroke="#000913"></path><path d="M294 794.7L323 837.5L316 744.9Z" fill="#000913" stroke="#000913"></path><path d="M720 121.5L623 118.5L660 235.3Z" fill="#6c28d2" stroke="#6c28d2"></path><path d="M660 235.3L623 118.5L534 197.3Z" fill="#532fc2" stroke="#532fc2"></path><path d="M501 0L407 0L411 57.8Z" fill="#002965" stroke="#002965"></path><path d="M720 649.2L720 560.4L621 661.2Z" fill="#532fc2" stroke="#532fc2"></path><path d="M501 0L411 57.8L486 90.8Z" fill="#532fc2" stroke="#532fc2"></path><path d="M253 822.7L323 837.5L294 794.7Z" fill="#26329f" stroke="#26329f"></path><path d="M301 0L232 0L283 100.8Z" fill="#000913" stroke="#000913"></path><path d="M623 118.5L557 54.8L540 151.5Z" fill="#6c28d2" stroke="#6c28d2"></path><path d="M569 739.9L663 763.7L603 718.9Z" fill="#011426" stroke="#011426"></path><path d="M493 772.7L550 778.7L569 739.9Z" fill="#6c28d2" stroke="#6c28d2"></path><path d="M475 860.5L550 778.7L493 772.7Z" fill="#532fc2" stroke="#532fc2"></path><path d="M475 860.5L493 772.7L402 811.7Z" fill="#002d79" stroke="#002d79"></path><path d="M0 731.9L48 741.9L89 666.2Z" fill="#002965" stroke="#002965"></path><path d="M182 770.7L240 845.5L253 822.7Z" fill="#001c3b" stroke="#001c3b"></path><path d="M720 344.1L720 223.3L660 235.3Z" fill="#26329f" stroke="#26329f"></path><path d="M232 0L184 0L185 59.8Z" fill="#11308d" stroke="#11308d"></path><path d="M253 822.7L240 845.5L323 837.5Z" fill="#000913" stroke="#000913"></path><path d="M142 833.5L240 845.5L182 770.7Z" fill="#11308d" stroke="#11308d"></path><path d="M557 54.8L501 0L486 90.8Z" fill="#000913" stroke="#000913"></path><path d="M557 0L501 0L557 54.8Z" fill="#26329f" stroke="#26329f"></path><path d="M48 741.9L79 785.7L169 703.9Z" fill="#002350" stroke="#002350"></path><path d="M663 763.7L621 661.2L603 718.9Z" fill="#011426" stroke="#011426"></path><path d="M720 744.9L720 649.2L621 661.2Z" fill="#000913" stroke="#000913"></path><path d="M313 959.2L384 867.5L323 837.5Z" fill="#11308d" stroke="#11308d"></path><path d="M323 837.5L384 867.5L402 811.7Z" fill="#002350" stroke="#002350"></path><path d="M0 619.2L0 731.9L89 666.2Z" fill="#011426" stroke="#011426"></path><path d="M48 741.9L42 827.5L79 785.7Z" fill="#002965" stroke="#002965"></path><path d="M79 785.7L142 833.5L182 770.7Z" fill="#11308d" stroke="#11308d"></path><path d="M364 982.2L449 918.2L384 867.5Z" fill="#001c3b" stroke="#001c3b"></path><path d="M42 827.5L142 833.5L79 785.7Z" fill="#002350" stroke="#002350"></path><path d="M94 0L0 80.8L63 100.8Z" fill="#000913" stroke="#000913"></path><path d="M63 100.8L0 80.8L0 160.5Z" fill="#001c3b" stroke="#001c3b"></path><path d="M384 867.5L475 860.5L402 811.7Z" fill="#6c28d2" stroke="#6c28d2"></path><path d="M550 778.7L663 763.7L569 739.9Z" fill="#6c28d2" stroke="#6c28d2"></path><path d="M0 731.9L0 749.7L48 741.9Z" fill="#11308d" stroke="#11308d"></path><path d="M641 58.8L557 54.8L623 118.5Z" fill="#011426" stroke="#011426"></path><path d="M601 0L557 0L557 54.8Z" fill="#011426" stroke="#011426"></path><path d="M720 101.8L641 58.8L623 118.5Z" fill="#3c32b1" stroke="#3c32b1"></path><path d="M184 0L94 0L185 59.8Z" fill="#3c32b1" stroke="#3c32b1"></path><path d="M475 860.5L572 831.5L550 778.7Z" fill="#002d79" stroke="#002d79"></path><path d="M572 831.5L663 763.7L550 778.7Z" fill="#6c28d2" stroke="#6c28d2"></path><path d="M720 223.3L720 121.5L660 235.3Z" fill="#11308d" stroke="#11308d"></path><path d="M720 0L601 0L641 58.8Z" fill="#002d79" stroke="#002d79"></path><path d="M641 58.8L601 0L557 54.8Z" fill="#532fc2" stroke="#532fc2"></path><path d="M720 121.5L720 101.8L623 118.5Z" fill="#002350" stroke="#002350"></path><path d="M0 749.7L42 827.5L48 741.9Z" fill="#000913" stroke="#000913"></path><path d="M313 959.2L323 837.5L240 845.5Z" fill="#002d79" stroke="#002d79"></path><path d="M720 785.7L720 744.9L663 763.7Z" fill="#002965" stroke="#002965"></path><path d="M663 763.7L720 744.9L621 661.2Z" fill="#002965" stroke="#002965"></path><path d="M384 867.5L449 918.2L475 860.5Z" fill="#011426" stroke="#011426"></path><path d="M475 860.5L520 918.2L572 831.5Z" fill="#6c28d2" stroke="#6c28d2"></path><path d="M572 831.5L650 827.5L663 763.7Z" fill="#001c3b" stroke="#001c3b"></path><path d="M313 959.2L240 845.5L213 953.2Z" fill="#002350" stroke="#002350"></path><path d="M645 911.2L650 827.5L572 831.5Z" fill="#000913" stroke="#000913"></path><path d="M94 0L0 0L0 80.8Z" fill="#532fc2" stroke="#532fc2"></path><path d="M0 749.7L0 829.5L42 827.5Z" fill="#11308d" stroke="#11308d"></path><path d="M213 953.2L240 845.5L142 833.5Z" fill="#001c3b" stroke="#001c3b"></path><path d="M449 918.2L520 918.2L475 860.5Z" fill="#26329f" stroke="#26329f"></path><path d="M720 873.5L720 785.7L650 827.5Z" fill="#011426" stroke="#011426"></path><path d="M650 827.5L720 785.7L663 763.7Z" fill="#000913" stroke="#000913"></path><path d="M115 918.2L142 833.5L42 827.5Z" fill="#532fc2" stroke="#532fc2"></path><path d="M449 918.2L497 1024L520 918.2Z" fill="#000913" stroke="#000913"></path><path d="M0 909.2L115 918.2L42 827.5Z" fill="#26329f" stroke="#26329f"></path><path d="M115 918.2L213 953.2L142 833.5Z" fill="#002350" stroke="#002350"></path><path d="M720 101.8L720 0L641 58.8Z" fill="#532fc2" stroke="#532fc2"></path><path d="M313 959.2L364 982.2L384 867.5Z" fill="#002d79" stroke="#002d79"></path><path d="M340 1024L364 982.2L313 959.2Z" fill="#011426" stroke="#011426"></path><path d="M115 918.2L171 965.2L213 953.2Z" fill="#6c28d2" stroke="#6c28d2"></path><path d="M221 1024L340 1024L313 959.2Z" fill="#11308d" stroke="#11308d"></path><path d="M135 1024L171 965.2L115 918.2Z" fill="#26329f" stroke="#26329f"></path><path d="M520 918.2L645 911.2L572 831.5Z" fill="#002d79" stroke="#002d79"></path><path d="M581 1024L645 911.2L520 918.2Z" fill="#26329f" stroke="#26329f"></path><path d="M0 829.5L0 909.2L42 827.5Z" fill="#532fc2" stroke="#532fc2"></path><path d="M645 911.2L720 873.5L650 827.5Z" fill="#11308d" stroke="#11308d"></path><path d="M221 1024L313 959.2L213 953.2Z" fill="#002350" stroke="#002350"></path><path d="M364 982.2L396 1024L449 918.2Z" fill="#26329f" stroke="#26329f"></path><path d="M221 1024L213 953.2L171 965.2Z" fill="#001c3b" stroke="#001c3b"></path><path d="M340 1024L396 1024L364 982.2Z" fill="#11308d" stroke="#11308d"></path><path d="M135 1024L221 1024L171 965.2Z" fill="#26329f" stroke="#26329f"></path><path d="M396 1024L497 1024L449 918.2Z" fill="#011426" stroke="#011426"></path><path d="M645 911.2L720 928.2L720 873.5Z" fill="#002965" stroke="#002965"></path><path d="M57 1024L135 1024L115 918.2Z" fill="#002350" stroke="#002350"></path><path d="M640 1024L720 928.2L645 911.2Z" fill="#000913" stroke="#000913"></path><path d="M497 1024L581 1024L520 918.2Z" fill="#3c32b1" stroke="#3c32b1"></path><path d="M0 909.2L57 1024L115 918.2Z" fill="#11308d" stroke="#11308d"></path><path d="M581 1024L640 1024L645 911.2Z" fill="#002965" stroke="#002965"></path><path d="M0 909.2L0 1024L57 1024Z" fill="#6c28d2" stroke="#6c28d2"></path><path d="M640 1024L720 1024L720 928.2Z" fill="#001c3b" stroke="#001c3b"></path></g></svg>